<?xml version="1.0" encoding="utf-8"?>
<!-- Generator: Adobe Illustrator 27.9.0, SVG Export Plug-In . SVG Version: 6.00 Build 0)  -->
<svg version="1.1" id="Layer_1" xmlns="http://www.w3.org/2000/svg" xmlns:xlink="http://www.w3.org/1999/xlink" x="0px" y="0px"
	 viewBox="0 0 281.87 367.66" style="enable-background:new 0 0 281.87 367.66;" xml:space="preserve">
<g>
	<g>
		<g>
			<path d="M154.89,328.39c4.79,3.51,6.45,8.17,4.84,13.16c-1.32,4.08-5.66,7-10.86,7.1c-4.74,0.09-9.48,0-14.23-0.01
				c-2.73-0.01-4.07-1.21-4.05-4.1c0.06-9.73,0.03-19.47-0.07-29.2c-0.03-3.15,1.35-4.62,4.44-4.62c3.99,0,7.99-0.14,11.98,0.02
				c4.3,0.17,8.13,1.44,10.2,5.69C159.06,320.38,158.52,323.34,154.89,328.39z M138.61,333.63c-1.06,7.53-0.98,7.65,5.92,7.56
				c1.48-0.02,3.17,0.17,4.39-0.47c1.41-0.74,2.4-2.28,3.57-3.47c-1.34-1.21-2.55-3.2-4.06-3.46
				C145.3,333.25,142.02,333.63,138.61,333.63z M138.38,318.59c0,2.55,0,4.61,0,7.41c3.14-0.17,6.15,0.08,8.9-0.66
				c1.27-0.34,2.44-2.53,2.78-4.07c0.14-0.63-1.96-2.37-3.2-2.56C144.21,318.31,141.46,318.59,138.38,318.59z"/>
			<path d="M236.75,323.07c0-2.97-0.11-5.7,0.03-8.42c0.14-2.64,0.73-5.08,4.23-4.94c3.25,0.13,3.72,2.34,3.72,4.93
				c0,9.86,0.05,19.73,0,29.59c-0.02,4.3-2.73,5.86-6.72,4.05c-0.79-0.36-1.89-0.83-2.54-0.55c-5.52,2.37-10.39,1.43-14.19-3.08
				c-3.79-4.5-4.15-9.79-1.85-15.12C222.2,323.13,228.53,320.77,236.75,323.07z M231.76,341.44c3.4,0.04,5.36-1.96,5.5-5.61
				c0.13-3.44-2.63-6.44-5.89-6.39c-2.89,0.04-5.39,2.79-5.44,5.97C225.86,339.44,227.75,341.39,231.76,341.44z"/>
			<path d="M208.76,323c0-3.33,0.02-6.32-0.01-9.31c-0.02-2.7,1.57-3.86,3.99-3.91c2.71-0.05,3.62,1.61,3.58,4.15
				c-0.13,9.74-0.08,19.49-0.35,29.23c-0.05,1.85-0.77,4.54-2.07,5.28c-1.46,0.83-3.93-0.12-5.93-0.7
				c-5.87,2.26-10.69,1.48-14.55-2.81c-4.03-4.49-4.7-11.26-1.62-16.36C195.24,322.92,200.7,321.05,208.76,323z M209.29,335.81
				c0.01-3.19-3.1-6.38-6.19-6.34c-2.74,0.04-5.53,3.08-5.57,6.08c-0.04,3.02,2.9,6.24,5.78,6.33
				C206.21,341.98,209.28,338.87,209.29,335.81z"/>
			<path d="M118.76,323.08c0-3.03,0.03-6-0.01-8.97c-0.04-2.76,1.35-4.23,4.03-4.3c2.75-0.08,3.59,1.61,3.58,4.12
				c-0.06,10.35-0.01,20.69-0.09,31.04c-0.03,3.58-3.46,5.52-6.47,3.43c-1.67-1.16-2.53-0.94-4.2-0.16
				c-5.57,2.61-12.78-1.15-14.88-7.51C96.86,329.05,105.48,320.44,118.76,323.08z M113.54,341.9c2.87,0.07,5.79-2.67,5.95-5.59
				c0.19-3.56-2.57-6.59-6.05-6.65c-3.25-0.06-5.95,2.58-5.98,5.84C107.43,338.64,110.45,341.82,113.54,341.9z"/>
			<path d="M25.8,318.74c0,2.91,0,5.36,0,8.36c3.19,0,6.26-0.08,9.33,0.03c2.43,0.09,4.93,0.32,4.81,3.76
				c-0.11,3.39-2.33,4.03-5.13,3.91c-2.85-0.13-5.69-0.26-9.17-0.42c0,3.53-0.1,6.72,0.03,9.9c0.12,2.84-1.04,4.81-3.86,4.91
				c-2.93,0.11-4.13-2.15-4.15-4.76c-0.07-9.73-0.04-19.47,0.06-29.2c0.03-3.11,2.14-4.4,4.95-4.46c5.61-0.13,11.23-0.09,16.85-0.12
				c2.82-0.01,4.75,1.48,4.7,4.19c-0.05,2.76-2.08,3.98-4.89,3.93C34.97,318.68,30.62,318.74,25.8,318.74z"/>
			<path d="M259.39,338.52c1.99-4.95,3.49-9.03,5.31-12.97c0.63-1.37,1.87-2.87,3.19-3.38c1.09-0.42,3.04,0.16,3.98,1
				c0.74,0.67,1.02,2.59,0.63,3.64c-1.94,5.26-4.12,10.43-6.3,15.6c-1.98,4.71-3.97,9.42-6.14,14.05c-1.6,3.43-4.05,4.56-6.48,3.12
				c-3.07-1.82-2.52-4.7-0.9-6.81c2.92-3.79,2.11-7.16,0.36-11.05c-2.04-4.53-3.56-9.31-5.23-14.01c-0.79-2.21-1.31-4.63,1.56-5.69
				c2.96-1.09,4.78,0.59,5.7,3.28C256.49,329.41,257.78,333.55,259.39,338.52z"/>
			<path d="M69.92,335.67c-0.09,7.52-6.35,13.46-14.14,13.4c-7.18-0.05-13.18-6.48-13.11-14.04c0.06-7.14,6.37-12.96,14.12-13.04
				C63.51,321.93,70,328.68,69.92,335.67z M56.29,329.73c-3.26-0.04-5.91,2.77-5.91,6.28c0,2.92,2.83,5.92,5.59,5.91
				c3.08-0.01,6.52-3.23,6.47-6.08C62.38,332.3,59.83,329.78,56.29,329.73z"/>
			<path d="M98.42,335.91c-0.03,7.05-6.24,13.06-13.56,13.12c-7.26,0.06-13.37-6.3-13.26-13.81c0.11-7.33,6.34-13.38,13.78-13.39
				C92.39,321.84,98.45,328.39,98.42,335.91z M85.05,341.89c3.28-0.07,6.13-3.07,6.06-6.38c-0.07-3.33-2.67-5.9-5.96-5.89
				c-3.59,0.01-6.15,2.62-6.06,6.17C79.17,338.93,82.13,341.95,85.05,341.89z"/>
			<path d="M179.31,348.18c-7.75,3.51-16.75-0.78-16.67-10.52c0.03-4.23,0.14-8.46,0.4-12.68c0.13-2.13,1.33-3.49,3.72-3.17
				c2.24,0.31,3.69,1.42,3.69,3.88c0,3.62,0.01,7.24-0.02,10.86c-0.02,2.9,1.07,4.87,4.23,5.02c3.37,0.16,5.23-1.39,5.38-4.76
				c0.15-3.36-0.06-6.74-0.02-10.1c0.03-2.61,0.89-4.9,3.97-4.79c3,0.11,3.79,2.3,3.75,4.99c-0.09,5.36,0.01,10.74-0.21,16.09
				c-0.08,1.85-0.42,4.82-1.46,5.24C184.13,349.02,181.59,348.29,179.31,348.18z"/>
			<path d="M113.8,182.06c0,0-0.13-0.13-0.12-0.13C113.68,181.93,113.8,182.06,113.8,182.06z"/>
		</g>
		<path d="M138.68,233.71c0.55-0.6,1.96-1.11,3.11,0l30,28.43c0,0,6.55,19.4,23.4,16.43s16.34-16.09,16.34-16.09s0.17-4.68,0-6.89
			c-0.17-2.21-1.45-5.79-4.77-9.28c-3.32-3.49-50.21-50.64-50.21-50.64l16.17-15.74c0,0,7.32-8,16.85-9.74
			c9.53-1.74,14.79-1.66,19.4-1.84c4.61-0.17,18.72-2.89,36.43-20.6s24.85-51.74,20.6-72c-4.26-20.26-20.77-26.55-40.43-24.26
			c-34.89,4.34-59.91,36.43-63.83,57.02c-3.91,20.6-0.94,26.13-0.34,29.53c0.6,3.4,2.55,9.19,2.64,13.96
			c0.09,4.77-2.89,9.11-2.89,9.11l-20.27,20.53c0,0-14.63-14.57-19.73-19.77c-5.11-5.19-3.06-18.81-2.04-28
			c1.02-9.19-5.83-17.4-7.74-19.32S56.98,60.18,54.68,57.88c-2.3-2.3-6.55-0.51-8,0.94c-1.45,1.45-4.17,3.83-2.47,5.53
			c1.7,1.7,49.02,51.06,51.06,53.11c2.04,2.04,0.09,5.62-1.36,7.06c-1.45,1.45-5.23,2.51-7.57,0.17
			c-2.34-2.34-48.6-49.7-50.64-51.74c-2.04-2.04-5.87-0.51-7.66,1.28c-1.79,1.79-4.34,4.17-2.3,6.21
			c2.04,2.04,49.36,51.57,50.81,53.02s-0.04,5.66-1.7,7.32c-1.66,1.66-5.86,2.2-7.55,0.51c-1.69-1.69-44.28-45.19-47.18-48.09
			s-5.87-1.45-8.17,0.85c-2.3,2.3-3.53,4.89-2.21,6.21c1.32,1.32,55.15,56.51,60.34,61.45s14.98,7.57,21.11,7.49
			c6.13-0.09,10.21,2.72,11.83,4.09c1.62,1.36,22.38,22.55,22.38,22.55l-50.47,50.13c0,0-5.02,5.53-5.02,10.3c0,4.77,0,5.36,0,7.74
			c0,2.38,3.66,12.96,14.04,14.86s18.55-3.12,20.94-7.37c2.38-4.26,2.72-7.91,6.3-11.23C114.77,256.94,138.68,233.71,138.68,233.71z
			"/>
	</g>
	<g>
		<path d="M129.41,36.93c7.84,10.12,16.12,9.39,23.35-0.84c3.17-4.35,10.06-1.3,9.04,3.92c-0.87,4.53-3.26,8.65-6.7,11.95
			c-5.43,5.41-14.51,7.58-21.68,4.42c-6.68-2.77-11.76-8.85-13.3-15.71C119,35.02,126.33,32.18,129.41,36.93L129.41,36.93z"/>
		<circle cx="105.7" cy="17.35" r="9.87"/>
		<circle cx="175.32" cy="17.35" r="9.87"/>
	</g>
</g>
</svg>
