<?xml version="1.0" encoding="utf-8"?>
<!-- Generator: Adobe Illustrator 27.9.0, SVG Export Plug-In . SVG Version: 6.00 Build 0)  -->
<svg version="1.1" id="Layer_1" xmlns="http://www.w3.org/2000/svg" xmlns:xlink="http://www.w3.org/1999/xlink" x="0px" y="0px"
	 viewBox="0 0 1194.3 309.71" style="enable-background:new 0 0 1194.3 309.71;" xml:space="preserve">
<style type="text/css">
	.st0{fill:#FFFFFF;}
</style>
<g>
	<g>
		<g>
			<path class="st0" d="M113.8,182.06c0,0-0.13-0.13-0.12-0.13C113.68,181.93,113.8,182.06,113.8,182.06z"/>
			<g>
				<path d="M767.02,161.96c15.97,11.72,21.51,27.25,16.13,43.88c-4.4,13.6-18.87,23.34-36.23,23.68
					c-15.81,0.31-31.63,0.01-47.45-0.03c-9.1-0.02-13.57-4.03-13.51-13.69c0.19-32.46,0.1-64.93-0.24-97.38
					c-0.11-10.49,4.51-15.4,14.8-15.41c13.32-0.01,26.65-0.46,39.95,0.06c14.33,0.57,27.11,4.79,34.02,18.99
					C780.91,135.25,779.13,145.11,767.02,161.96z M712.71,179.44c-3.53,25.12-3.26,25.5,19.73,25.21
					c4.94-0.06,10.58,0.57,14.63-1.55c4.7-2.46,8-7.6,11.9-11.57c-4.48-4.03-8.51-10.67-13.54-11.54
					C735.04,178.18,724.09,179.44,712.71,179.44z M711.94,129.28c0,8.5,0,15.39,0,24.7c10.47-0.56,20.52,0.27,29.69-2.2
					c4.22-1.14,8.15-8.43,9.28-13.57c0.46-2.1-6.53-7.9-10.67-8.52C731.4,128.35,722.21,129.28,711.94,129.28z"/>
				<path d="M1040.04,144.22c0-9.9-0.37-19.01,0.1-28.08c0.46-8.79,2.45-16.95,14.11-16.47c10.83,0.44,12.42,7.79,12.42,16.45
					c0,32.9,0.16,65.8,0.01,98.7c-0.06,14.35-9.12,19.54-22.42,13.5c-2.63-1.19-6.3-2.78-8.49-1.84
					c-18.39,7.91-34.66,4.76-47.34-10.28c-12.65-15-13.86-32.67-6.17-50.43C991.52,144.4,1012.64,136.54,1040.04,144.22z
					 M1023.38,205.5c11.33,0.14,17.89-6.54,18.35-18.71c0.43-11.47-8.78-21.47-19.66-21.32c-9.63,0.13-17.98,9.3-18.14,19.91
					C1003.73,198.81,1010.03,205.33,1023.38,205.5z"/>
				<path d="M946.68,144c0-11.1,0.06-21.07-0.02-31.04c-0.07-9.02,5.25-12.87,13.32-13.03c9.04-0.18,12.07,5.38,11.96,13.85
					c-0.42,32.5-0.26,65-1.16,97.48c-0.17,6.18-2.57,15.14-6.9,17.61c-4.86,2.77-13.09-0.39-19.79-2.35
					c-19.58,7.53-35.66,4.94-48.52-9.39c-13.46-14.99-15.69-37.55-5.4-54.57C901.58,143.7,919.8,137.47,946.68,144z M948.46,186.72
					c0.05-10.63-10.34-21.27-20.63-21.13c-9.14,0.12-18.44,10.28-18.58,20.29c-0.14,10.08,9.66,20.81,19.27,21.12
					C938.19,207.29,948.41,196.91,948.46,186.72z"/>
				<path d="M646.49,144.25c0-10.1,0.11-20.02-0.03-29.93c-0.13-9.22,4.49-14.09,13.45-14.34c9.16-0.26,11.99,5.38,11.94,13.75
					c-0.19,34.51-0.04,69.02-0.3,103.53c-0.09,11.93-11.54,18.4-21.59,11.45c-5.58-3.86-8.45-3.13-14-0.52
					c-18.59,8.72-42.62-3.85-49.63-25.06C573.44,164.16,602.22,135.45,646.49,144.25z M629.1,207.01
					c9.56,0.25,19.31-8.92,19.84-18.65c0.65-11.86-8.56-21.98-20.17-22.18c-10.85-0.18-19.85,8.6-19.95,19.48
					C608.72,196.15,618.79,206.74,629.1,207.01z"/>
				<path d="M336.45,129.77c0,9.72,0,17.88,0,27.89c10.63,0,20.88-0.27,31.11,0.09c8.11,0.29,16.43,1.07,16.05,12.54
					c-0.37,11.32-7.79,13.45-17.1,13.03c-9.49-0.42-18.98-0.87-30.57-1.41c0,11.76-0.33,22.4,0.1,33.02
					c0.39,9.49-3.48,16.05-12.87,16.39c-9.77,0.36-13.79-7.18-13.85-15.86c-0.23-32.47-0.13-64.94,0.19-97.41
					c0.1-10.39,7.15-14.67,16.5-14.89c18.72-0.43,37.46-0.31,56.19-0.39c9.41-0.04,15.83,4.94,15.68,13.98
					c-0.16,9.2-6.92,13.28-16.33,13.09C367.05,129.57,352.53,129.77,336.45,129.77z"/>
				<path d="M1115.55,195.75c6.65-16.5,11.65-30.13,17.72-43.27c2.11-4.56,6.23-9.56,10.63-11.26c3.62-1.4,10.15,0.53,13.26,3.33
					c2.47,2.23,3.39,8.64,2.1,12.13c-6.47,17.54-13.75,34.78-21,52.02c-6.62,15.71-13.26,31.43-20.47,46.87
					c-5.35,11.45-13.51,15.2-21.6,10.39c-10.23-6.07-8.41-15.69-3.01-22.71c9.73-12.65,7.05-23.88,1.21-36.84
					c-6.82-15.12-11.88-31.05-17.46-46.72c-2.62-7.37-4.35-15.44,5.22-18.97c9.87-3.64,15.95,1.96,19.02,10.93
					C1105.87,165.35,1110.18,179.18,1115.55,195.75z"/>
				<path d="M483.59,186.24c-0.29,25.09-21.17,44.88-47.16,44.69c-23.94-0.17-43.95-21.6-43.73-46.83
					c0.2-23.82,21.25-43.24,47.11-43.48C462.23,140.41,483.86,162.94,483.59,186.24z M438.13,166.44
					c-10.88-0.13-19.7,9.24-19.7,20.94c0,9.75,9.43,19.73,18.64,19.72c10.29-0.02,21.74-10.78,21.58-20.28
					C458.45,175.02,449.96,166.58,438.13,166.44z"/>
				<path d="M578.65,187.06c-0.1,23.52-20.8,43.55-45.24,43.76c-24.22,0.21-44.61-21.02-44.22-46.05
					c0.38-24.45,21.16-44.64,45.97-44.65C558.53,140.11,578.76,161.95,578.65,187.06z M534.08,207
					c10.93-0.23,20.45-10.25,20.22-21.27c-0.23-11.1-8.91-19.68-19.89-19.64c-11.97,0.04-20.53,8.73-20.22,20.57
					C514.46,197.12,524.32,207.2,534.08,207z"/>
				<path d="M848.47,227.98c-25.84,11.7-55.87-2.59-55.61-35.09c0.11-14.1,0.46-28.22,1.33-42.29c0.44-7.1,4.43-11.66,12.4-10.57
					c7.48,1.02,12.3,4.74,12.3,12.94c-0.01,12.07,0.03,24.14-0.06,36.21c-0.07,9.67,3.57,16.24,14.11,16.74
					c11.24,0.53,17.46-4.64,17.96-15.86c0.5-11.21-0.22-22.47-0.07-33.7c0.11-8.72,2.96-16.35,13.23-15.99
					c10.01,0.35,12.63,7.69,12.49,16.65c-0.28,17.89,0.05,35.81-0.7,53.68c-0.26,6.16-1.41,16.08-4.88,17.47
					C864.52,230.76,856.07,228.32,848.47,227.98z"/>
			</g>
		</g>
		<path d="M138.68,233.71c0.55-0.6,1.96-1.11,3.11,0l30,28.43c0,0,6.55,19.4,23.4,16.43s16.34-16.09,16.34-16.09s0.17-4.68,0-6.89
			c-0.17-2.21-1.45-5.79-4.77-9.28c-3.32-3.49-50.21-50.64-50.21-50.64l16.17-15.74c0,0,7.32-8,16.85-9.74
			c9.53-1.74,14.79-1.66,19.4-1.84c4.61-0.17,18.72-2.89,36.43-20.6s24.85-51.74,20.6-72c-4.26-20.26-20.77-26.55-40.43-24.26
			c-34.89,4.34-59.91,36.43-63.83,57.02c-3.91,20.6-0.94,26.13-0.34,29.53c0.6,3.4,2.55,9.19,2.64,13.96
			c0.09,4.77-2.89,9.11-2.89,9.11l-20.27,20.53c0,0-14.63-14.57-19.73-19.77c-5.11-5.19-3.06-18.81-2.04-28
			c1.02-9.19-5.83-17.4-7.74-19.32S56.98,60.18,54.68,57.88c-2.3-2.3-6.55-0.51-8,0.94c-1.45,1.45-4.17,3.83-2.47,5.53
			c1.7,1.7,49.02,51.06,51.06,53.11c2.04,2.04,0.09,5.62-1.36,7.06c-1.45,1.45-5.23,2.51-7.57,0.17
			c-2.34-2.34-48.6-49.7-50.64-51.74c-2.04-2.04-5.87-0.51-7.66,1.28c-1.79,1.79-4.34,4.17-2.3,6.21
			c2.04,2.04,49.36,51.57,50.81,53.02s-0.04,5.66-1.7,7.32c-1.66,1.66-5.86,2.2-7.55,0.51c-1.69-1.69-44.28-45.19-47.18-48.09
			s-5.87-1.45-8.17,0.85c-2.3,2.3-3.53,4.89-2.21,6.21c1.32,1.32,55.15,56.51,60.34,61.45s14.98,7.57,21.11,7.49
			c6.13-0.09,10.21,2.72,11.83,4.09c1.62,1.36,22.38,22.55,22.38,22.55l-50.47,50.13c0,0-5.02,5.53-5.02,10.3c0,4.77,0,5.36,0,7.74
			c0,2.38,3.66,12.96,14.04,14.86s18.55-3.12,20.94-7.37c2.38-4.26,2.72-7.91,6.3-11.23C114.77,256.94,138.68,233.71,138.68,233.71z
			"/>
	</g>
	<g>
		<g>
			<path d="M129.41,36.93c7.84,10.12,16.12,9.39,23.35-0.84c3.17-4.35,10.06-1.3,9.04,3.92c-0.87,4.53-3.26,8.65-6.7,11.95
				c-5.43,5.41-14.51,7.58-21.68,4.42c-6.68-2.77-11.76-8.85-13.3-15.71C119,35.02,126.33,32.18,129.41,36.93L129.41,36.93z"/>
		</g>
		<circle cx="105.7" cy="17.35" r="9.87"/>
		<circle cx="175.32" cy="17.35" r="9.87"/>
	</g>
</g>
</svg>
